# xmcd CD database file
#
# Track frame offsets:
#	150
#	24918
#	51814
#	68457
#	94455
#	111892
#	136127
#	159248
#	180392
#	202461
#	226221
#	244419
#	269301
#
# Disc length: 3894 seconds
#
# Revision: 0
# Processed by: cddbd v1.5.1PL0 Copyright (c) Steve Scherf et al.
# Submitted via: CDex 1.51
#
DISCID=ae0f340d
DTITLE=MYU RECORDINGS - prospect
DYEAR=1900
DGENRE=Techno
TTITLE0=永遠不変の意思
TTITLE1=BRAIN ENCODE PROCESSING
TTITLE2=惨劇への序章
TTITLE3=PRHYTHMIC
TTITLE4=まだ見ぬ真実の美しさよ
TTITLE5=意味ありげな微笑み (what mean is your smile?)
TTITLE6=VEL.
TTITLE7=明日を見ず微笑む
TTITLE8=THE ENTRANCE INTO THE NIGHT
TTITLE9=90年代の産声
TTITLE10=それでも旅は続く
TTITLE11=NO ENTRANCE
TTITLE12=ASPECT
EXTD=
EXTT0=
EXTT1=
EXTT2=
EXTT3=
EXTT4=
EXTT5=
EXTT6=
EXTT7=
EXTT8=
EXTT9=
EXTT10=
EXTT11=
EXTT12=
PLAYORDER=
